<?xml version="1.0" standalone="no"?><!DOCTYPE svg PUBLIC "-//W3C//DTD SVG 1.1//EN" "http://www.w3.org/Graphics/SVG/1.1/DTD/svg11.dtd"><svg t="1547453437928" class="icon" style="" viewBox="0 0 1024 1024" version="1.1" xmlns="http://www.w3.org/2000/svg" p-id="23429" xmlns:xlink="http://www.w3.org/1999/xlink" width="200" height="200"><defs><style type="text/css"></style></defs><path d="M684.004981 733.398436c-52.135404 36.991496-113.159246 55.54506-175.551248 54.698786-8.249895-0.089028-16.45067-0.528026-24.559349-1.234107-3.298116-0.321318-6.593162-0.873903-9.940396-1.282203-6.368034-0.873903-12.734022-1.74269-18.918885-2.959402-3.846608-0.733711-7.608282-1.720178-11.363815-2.606361-6.092765-1.446955-12.138458-2.913353-18.096147-4.696975-2.836605-0.896416-5.633301-1.926886-8.475022-2.886747-6.826476-2.317789-13.654998-4.718465-20.293185-7.537673-1.512447-0.618077-2.978844-1.326205-4.446265-2.013867-7.786337-3.459798-15.437597-7.077186-22.858614-11.155061-0.367367-0.184195-0.64366-0.342808-1.01205-0.530073-25.102724-13.94357-48.052412-31.374568-68.212568-51.740408-0.317225-0.321318-0.638543-0.692778-0.959861-1.051959-6.27696-6.349615-12.229532-13.011338-17.912975-19.925818-1.190105-1.49198-2.335185-3.071965-3.52529-4.584412-41.005926-51.925626-65.745377-117.640304-65.745377-189.130522l69.546959 0c1.784646 0 3.527336-0.960885 4.441149-2.657526 0.919952-1.671059 0.781806-3.665483-0.225127-5.152347L169.02716 299.459303c-0.913812-1.375324-2.463098-2.289136-4.227278-2.289136-1.74269 0-3.300162 0.914836-4.214998 2.289136L43.716152 476.927203c-0.981351 1.512447-1.14508 3.485381-0.225127 5.176906 0.914836 1.696642 2.657526 2.657526 4.440126 2.657526l69.543889 0c0 84.039022 25.883507 161.941276 69.833485 226.350215 0.545422 0.892323 0.913812 1.855254 1.512447 2.747577 4.579295 6.597255 9.617032 12.666484 14.518668 18.900465 1.789763 2.353604 3.532453 4.78805 5.406127 7.096628 7.190773 8.843412 14.84715 17.137309 22.681582 25.267477 0.775666 0.802272 1.465374 1.604544 2.197038 2.315742 26.390044 26.753317 56.210209 49.28959 88.690972 67.293639 0.828878 0.523933 1.651616 1.032516 2.565429 1.512447 9.345856 5.084808 18.969027 9.689686 28.725228 14.038738 2.427282 1.049912 4.762467 2.223644 7.236821 3.28072 8.338922 3.480264 16.905018 6.544043 25.520233 9.480932 4.077875 1.399883 8.104585 2.815115 12.230556 4.096295 7.562233 2.270716 15.259542 4.151553 22.99676 6.027274 5.176906 1.216711 10.265808 2.520403 15.528672 3.530406 2.157129 0.455371 4.217045 1.12052 6.368034 1.462305 7.334036 1.304715 14.661931 2.039449 21.995967 2.960425 2.651386 0.295735 5.263887 0.750083 7.874341 1.051959 13.195533 1.302669 26.299993 2.171456 39.400359 2.171456 80.21902 0 158.463058-24.826432 225.582735-72.444962 21.391193-15.207353 26.615171-45.060265 11.630898-66.74924C734.945163 723.438597 705.39822 718.189036 684.004981 733.398436" p-id="23430"></path><path d="M906.562822 484.761636c-0.047072-83.785242-25.746384-161.529907-69.501934-225.798653-0.638543-1.103124-1.099031-2.222621-1.782599-3.233648-5.453199-7.854898-11.361769-15.183817-17.273409-22.537296-0.684592-0.893346-1.329275-1.833765-2.060939-2.702552-40.039925-49.177026-90.299609-87.178525-147.286508-112.003933-1.558495-0.690732-3.116991-1.467421-4.675486-2.157129-9.116635-3.777023-18.417465-7.123234-27.759227-10.307763-3.393283-1.118474-6.735401-2.355651-10.17371-3.388167-8.151657-2.498914-16.445554-4.53734-24.785499-6.484691-4.626367-1.072425-9.204639-2.26253-13.880125-3.182482-2.335185-0.455371-4.487198-1.14508-6.782473-1.554402-6.223748-1.104147-12.504802-1.584078-18.733667-2.38635-4.309142-0.547469-8.566096-1.236154-12.920264-1.691525-10.490935-0.986467-20.890796-1.399883-31.289634-1.584078-1.87572 0-3.756557-0.295735-5.637394-0.295735-0.317225 0-0.638543 0.091074-1.00591 0.11154-80.07985 0.070608-158.191882 24.555256-225.213321 72.107271-21.439288 15.163351-26.66122 45.053102-11.683087 66.74617 14.983249 21.687952 44.578288 26.957978 65.969481 11.749602 51.768037-36.719296 112.200408-55.29435 174.137039-54.742788 8.93244 0.065492 17.680684 0.505513 26.336832 1.328251 2.704598 0.321318 5.316076 0.710175 7.972579 1.051959 7.14984 0.873903 14.202467 1.901303 21.168112 3.302209 3.070942 0.592494 6.136767 1.394766 9.116635 2.080382 6.827499 1.557472 13.649881 3.233648 20.339234 5.26798 2.106987 0.689708 4.170996 1.445932 6.275937 2.156106 7.65126 2.520403 15.115256 5.244444 22.49534 8.335852 0.731664 0.321318 1.51347 0.710175 2.243087 1.006933 44.1178 19.219737 82.829474 48.813752 113.0211 85.803201 0.184195 0.230244 0.36225 0.525979 0.546446 0.735757 42.513256 52.380998 68.12661 119.359458 68.12661 192.263885l-69.547982 0c-1.782599 0-3.52529 0.966001-4.440126 2.657526-0.915859 1.694595-0.782829 3.669576 0.230244 5.177929l116.909663 177.474041c0.873903 1.3743 2.432399 2.263553 4.217045 2.263553 1.741667 0 3.295046-0.889253 4.214998-2.263553L980.273614 492.591975c1.006933-1.515516 1.146103-3.483334 0.226151-5.177929-0.915859-1.691525-2.653433-2.657526-4.441149-2.657526l-69.495794 0L906.562822 484.761636 906.562822 484.761636zM906.562822 484.761636" p-id="23431"></path></svg>